<?xml version="1.0" standalone="no"?>
<!DOCTYPE svg PUBLIC "-//W3C//DTD SVG 20010904//EN"
 "http://www.w3.org/TR/2001/REC-SVG-20010904/DTD/svg10.dtd">
<svg version="1.0" xmlns="http://www.w3.org/2000/svg"
 width="64.000000pt" height="64.000000pt" viewBox="0 0 64.000000 64.000000"
 preserveAspectRatio="xMidYMid meet">

<g transform="translate(0.000000,64.000000) scale(0.100000,-0.100000)"
fill="#000000" stroke="none">
<path d="M134 519 c-34 -17 -57 -66 -51 -106 12 -74 89 -113 152 -78 93 49 61
196 -42 194 -21 0 -47 -5 -59 -10z"/>
<path d="M374 519 c-34 -17 -57 -66 -51 -106 12 -74 89 -113 152 -78 93 49 61
196 -42 194 -21 0 -47 -5 -59 -10z"/>
<path d="M115 280 c-44 -18 -78 -67 -83 -120 l-5 -50 82 0 81 0 0 39 c0 21 11
58 25 85 14 26 25 49 25 52 0 7 -104 3 -125 -6z"/>
<path d="M320 268 c-48 -33 -72 -71 -74 -115 l-1 -38 184 -3 184 -2 -5 44
c-11 92 -71 136 -186 136 -55 0 -76 -4 -102 -22z"/>
</g>
</svg>
